inDegrees=no
num_controls=7
num_derivatives=13
num_iterations=119
num_multipliers=7
num_parameters=0
num_slacks=7
num_states=26
objective=0.452902
objective_accelerations=0.047835
objective_balance=0.001037
objective_effort=0.037282
objective_height=0.361114
objective_ligament=0.005634
solver_duration=1339.204386
status=Solve_Succeeded
success=true
DataType=double
version=3
OpenSimVersion=4.5
endheader
time	/jointset/ground_pelvis/pelvis_tilt/value	/jointset/ground_pelvis/pelvis_tx/value	/jointset/ground_pelvis/pelvis_ty/value	/jointset/hip_r/hip_flexion_r/value	/jointset/hip_r/hip_adduction_r/value	/jointset/hip_r/hip_rotation_r/value	/jointset/back/lumbar_extension/value	/jointset/patellofemoral_r/patellar_flexion_r/value	/jointset/knee_r/knee_flexion_r/value	/jointset/knee_r/knee_adduction_r/value	/jointset/knee_r/knee_rotation_r/value	/jointset/ankle_r/ankle_angle_r/value	/jointset/subtalar_r/subtalar_angle_r/value	/jointset/ground_pelvis/pelvis_tilt/speed	/jointset/ground_pelvis/pelvis_tx/speed	/jointset/ground_pelvis/pelvis_ty/speed	/jointset/hip_r/hip_flexion_r/speed	/jointset/hip_r/hip_adduction_r/speed	/jointset/hip_r/hip_rotation_r/speed	/jointset/back/lumbar_extension/speed	/jointset/patellofemoral_r/patellar_flexion_r/speed	/jointset/knee_r/knee_flexion_r/speed	/jointset/knee_r/knee_adduction_r/speed	/jointset/knee_r/knee_rotation_r/speed	/jointset/ankle_r/ankle_angle_r/speed	/jointset/subtalar_r/subtalar_angle_r/speed	/forceset/tau_hip_flexion_r	/forceset/tau_hip_adduction_r	/forceset/tau_hip_rotation_r	/forceset/tau_knee_flexion_r	/forceset/tau_ankle_angle_r	/forceset/tau_subtalar_angle_r	/forceset/tau_lumbar_extension	lambda_cid13_p0	lambda_cid14_p0	lambda_cid14_p1	lambda_cid14_p2	lambda_cid14_p3	lambda_cid14_p4	lambda_cid14_p5	/jointset/ground_pelvis/pelvis_tilt/accel	/jointset/ground_pelvis/pelvis_tx/accel	/jointset/ground_pelvis/pelvis_ty/accel	/jointset/hip_r/hip_flexion_r/accel	/jointset/hip_r/hip_adduction_r/accel	/jointset/hip_r/hip_rotation_r/accel	/jointset/back/lumbar_extension/accel	/jointset/patellofemoral_r/patellar_flexion_r/accel	/jointset/knee_r/knee_flexion_r/accel	/jointset/knee_r/knee_adduction_r/accel	/jointset/knee_r/knee_rotation_r/accel	/jointset/ankle_r/ankle_angle_r/accel	/jointset/subtalar_r/subtalar_angle_r/accel	gamma_cid13_p0	gamma_cid14_p0	gamma_cid14_p1	gamma_cid14_p2	gamma_cid14_p3	gamma_cid14_p4	gamma_cid14_p5
1	-0.2153911663023938	-0.01363452324894265	0.6355295250734488	1.412828109996599	-0.2386283620830734	-0.08679412331182611	-0.7853971831686269	1.514168458964175	1.514168458964164	-0.1745327314250646	0.1745283751228359	0.4362564314523809	0.1751693468491821	0.06912189685355183	0.004893771228857661	0.01551544472253252	-0.1004037006016956	-0.0007960846531588334	-0.002926073450013132	-0.0001505057109597361	-0.01860365405801182	-0.01860365405801202	0.003195538326600364	-0.0004645455511822871	0.01266728141081708	0.005079712168431371	-0.3212310985225688	0.02521292439930515	0.01102581710956691	-0.4739138231478136	-0.007686458872714252	0.006619982231544523	0.351088662055528	-0.04100530861080091	-54.00736158245211	-10.19422409083234	6.174069088417549	6.952840968405114	-768.6233618074793	72.13624329737091	1.17268800226634	0.1431684157375592	1.818613340550376	-5.355661458636646	0.2732626369109919	-0.67431422165446	-0.02542319743574159	-5.062200891375644	-5.062200891375668	0.5887378111670883	-0.03878931966863962	-1.022393173809243	0.006975637598449688	1.406422903165761e-09	1.253076578904427e-10	1.126933320980226e-08	8.367064973141815e-09	2.59674308924531e-09	-6.314982032256542e-09	1.917588675438601e-08
1.01	-0.2146419788058099	-0.01357826447363123	0.6357755143780492	1.411556911765253	-0.2386228374888369	-0.08685422561028418	-0.785398049631861	1.513729756812651	1.513729756812644	-0.174468269776129	0.1745216718042857	0.4363321704912152	0.1752201798425227	0.08071061776171712	0.006377107528993966	0.03368499250589558	-0.1538583592871705	0.001885571616908387	-0.009050518375918847	9.732001188447677e-05	-0.0691356541994754	-0.06913565419947602	0.009763198899484297	-0.0008538447120091512	0.002501881505096046	0.005067265929920238	-0.321796336271057	0.02523210467184566	0.01110047218814226	-0.4740007705984751	-0.007777177631924454	0.006614614452498077	0.3519330494812963	-0.0410007445570424	-54.06673342598808	-10.20780854687954	6.177214649617635	6.747242685638526	-769.2109486332818	72.15501081855471	1.151218316889701	0.1537851231670741	1.816509189056237	-5.343728508237576	0.263307118951278	-0.5749280814149298	0.06790150261651265	-5.048532277644055	-5.0485322776441	0.7007420545317228	-0.03564909792797954	-1.010410747121724	-0.008287501937228358	5.009744029691935e-09	4.952427918204455e-09	3.906815558785737e-08	3.498694755518402e-08	1.667721092388045e-09	-1.369754296870905e-08	7.211434015430855e-08
1.02	-0.213777053263786	-0.01350659855811536	0.6362032758988486	1.409750494860103	-0.2385909583325211	-0.08697425604866978	-0.7853928346289721	1.512785768119289	1.512785768119287	-0.174336139146621	0.1745117457174061	0.4363068960613655	0.1752703018240059	0.09226950594180594	0.007975199269747272	0.05186988796233872	-0.2074474353620323	0.004474827762841163	-0.01491170143607569	0.0010657875536107	-0.1196609624254334	-0.1196609624254343	0.01672933443967506	-0.001109099218366474	-0.007535412327353001	0.004937509796955676	-0.3223615740195555	0.02525128494439211	0.01117512726668137	-0.4740877180491405	-0.007867896391131239	0.006609246673465416	0.3527774369070554	-0.04100386327325779	-54.1338874270927	-10.21914536097353	6.175877741808301	6.545034621673209	-769.9220548509247	72.20559249140277	1.166721456651041	0.1661195038609638	1.82168287516639	-5.382544936514058	0.2547826120840947	-0.6216618485046981	0.1187051663407719	-5.060862508274522	-5.060862508274515	0.6684328046284543	-0.01198038877471114	-0.9967719591548386	-0.01648634129224833	1.119534221926318e-08	1.505186393292938e-08	6.945627754364144e-08	8.008591522224985e-08	-5.076596687951895e-09	-1.991210954154112e-08	1.478331717598009e-07
1.03	-0.2127971341750593	-0.01341843232958196	0.6368128329412082	1.407408259111979	-0.2385335545458529	-0.08715163749890405	-0.7853734249744355	1.511336592814365	1.511336592814366	-0.1741325479902903	0.1744997772940122	0.4361816392785644	0.1753185875708555	0.1036640518535047	0.00967193316331692	0.07003108561492666	-0.2609474825801936	0.007000838071855664	-0.02052741829462083	0.003028148302518578	-0.1701698387521863	-0.1701698387521871	0.02403345521154947	-0.001280841735412879	-0.01751902562924747	0.00470694237658875	-0.3232978722830419	0.02541620122593476	0.01124775477866076	-0.4733302775034086	-0.008965573941742659	0.006670506463299254	0.353941750597729	-0.04102124071399609	-54.51450973628523	-10.23418985737947	6.149726608543109	6.66178855953134	-770.4834168078406	72.16393466600495	1.118287509270197	0.1735309237823664	1.8117677155642	-5.325894857892643	0.2507627092667418	-0.5259413614847889	0.2668022712132562	-5.045264742891383	-5.045264742891368	0.7680829265718604	-0.01917562210742754	-0.9996177921775478	-0.02821594086551068	1.740729017478388e-08	2.520509908800546e-08	9.987082092368806e-08	1.253734449820201e-07	-1.188025422118455e-08	-2.611475780454033e-08	2.237844562041257e-07
1.04	-0.2117047763570483	-0.0133128826437774	0.6376036878611454	1.404532590842984	-0.2384510401623041	-0.08738405906911208	-0.7853280315639894	1.50938245583657	1.509382455836574	-0.1738545793836128	0.1744862105576637	0.4359564540074482	0.1753641928438101	0.1147572517988388	0.01145189072398054	0.0881294634778847	-0.3141339395353753	0.009496947139132695	-0.02591972543137919	0.006262538733325385	-0.2206532969995681	-0.2206532969995687	0.03160482450762037	-0.001428761809971817	-0.02752110998997399	0.004401415017957965	-0.3242341705465497	0.02558111750748233	0.01132038229058034	-0.4725728369576834	-0.01006325149234902	0.006731766253146356	0.3551060642883828	-0.04104615866437173	-54.90289979873832	-10.24665571686505	6.11866503000198	6.779470883680941	-771.1706947237992	72.1553638820767	1.106452263378101	0.1827642372797601	1.809118917240404	-5.319826883918137	0.2488023637365908	-0.5769799041473526	0.3731111027205192	-5.055778892400282	-5.055778892400278	0.7218825094677574	-0.007215900277192185	-1.000466170921248	-0.03147832894503926	2.276995290838604e-08	3.375358635529314e-08	1.306132609077477e-07	1.657926693599777e-07	-1.693550657879813e-08	-3.259503619665085e-08	2.931903217715242e-07
1.05	-0.2105027842803449	-0.01318910511604318	0.6385751681940416	1.401126540104272	-0.238343786296933	-0.08766923288262679	-0.7852444890604334	1.506923687565771	1.506923687565774	-0.173499421211662	0.174471430388463	0.4356310806525186	0.1754061906380342	0.1256091162523582	0.01331870505924584	0.1061514532602379	-0.3670298646707623	0.01194317802093845	-0.03107170152649418	0.01060593174366859	-0.271088564527955	-0.2710885645279569	0.03948380436573602	-0.001512875991165392	-0.03756388238061981	0.00397101038303022	-0.3245038591246904	0.02566187665384063	0.01147076464885926	-0.4717788887866369	-0.01063693248225847	0.006750295564466962	0.3557001007489959	-0.04107858128273816	-55.09007858431523	-10.24891413067282	6.093361462621217	6.783434769518863	-771.3182959406697	72.13265588144708	1.069755034686124	0.1908991293752877	1.796458650220658	-5.267515660728363	0.2409628483725554	-0.4777899190728279	0.4889488650105075	-5.035637463342355	-5.035637463342557	0.8294506332780959	-0.006794182107839675	-1.007730081815402	-0.05284176171787484	2.810607547880325e-08	4.225192525108743e-08	1.613659476606827e-07	2.060597591947537e-07	-2.193612127467361e-08	-3.908399053029609e-08	3.623916429990189e-07
1.06	-0.2091932332594374	-0.01304620762541124	0.6397264123530589	1.397192922047728	-0.2382123842431504	-0.08800462314846716	-0.7851127135338088	1.503960919263632	1.503960919263633	-0.1730637642592671	0.1744562520764374	0.4352049701119461	0.1754430803397189	0.1362690406397678	0.01527588330352478	0.1240822287021105	-0.4196474031013249	0.01432658482154296	-0.03596301589677846	0.01590914334678429	-0.3214533032677206	-0.3214533032677239	0.04770458059563665	-0.001508390375054865	-0.04766854711843189	0.003379796510053241	-0.3247735477028432	0.02574263580020063	0.01162114700710317	-0.4709849406155941	-0.01121061347216532	0.006768824875792987	0.3562941372095978	-0.04111856455618215	-55.28504051955636	-10.2483352168833	6.06280764513194	6.787392289304268	-771.5936546468249	72.14420125978722	1.068064250156128	0.2008370190824878	1.790876049144279	-5.264149542953264	0.23623754749633	-0.5248475591812206	0.5650748212750056	-5.041673134676019	-5.041673134676023	0.7902417838247581	0.01050405918365281	-1.012844640354502	-0.06364017655490488	3.381842848968997e-08	5.106713113900994e-08	1.896291835042328e-07	2.495582079244729e-07	-2.69404897382438e-08	-4.472125663347546e-08	4.311074426465934e-07
1.07	-0.2077781484079955	-0.01288327089262394	0.6410564123196715	1.392734810460925	-0.2380574419997037	-0.08838786143543773	-0.7849229990333361	1.500494959144279	1.500494959144278	-0.1725444980974079	0.174441520374803	0.4346774465401452	0.1754732689238562	0.1467025424273156	0.01732811076367552	0.141892784239303	-0.4718969584832849	0.01665488039069016	-0.04065977318526536	0.02220790048113174	-0.3717165081567853	-0.3717165081567886	0.05617801139877659	-0.001431587591667848	-0.0578518517888076	0.002635473791116685	-0.3247021612509079	0.02579591524335835	0.01182227470090491	-0.4699287625462955	-0.01162637056947893	0.0067707230642387	0.3566214333722741	-0.04116560856374749	-55.40166420236341	-10.24051454694042	6.03024505562548	6.743428707202039	-771.4463027392853	72.11847650935131	1.024196942340588	0.2099062761626052	1.772388107116457	-5.193653820895152	0.2301158845498158	-0.4383352710640588	0.688397719496889	-5.015320290333606	-5.015320290333611	0.8802906322676287	0.007301023304496401	-1.023424427334217	-0.08312632689487627	3.955079375804848e-08	5.989919165417332e-08	2.1776000174622e-07	2.932285374464763e-07	-3.194505787030839e-08	-5.031322017120451e-08	4.997974166782146e-07
